name D:\school\WTK\thesis\model\3dpredictsim\Results\MidTarsalJoint\Fal_s1_bCst_PF_Natali2010_ls150_MT_nl_k500_10_MTP_T5_ig24.mot
datacolumns 128
datarows 4
range 1.73032279 1.76492925
endheader
time	pelvis_tilt	pelvis_list	pelvis_rotation	pelvis_tx	pelvis_ty	pelvis_tz	hip_flexion_l	hip_adduction_l	hip_rotation_l	hip_flexion_r	hip_adduction_r	hip_rotation_r	knee_angle_l	knee_angle_r	ankle_angle_l	ankle_angle_r	subtalar_angle_l	subtalar_angle_r	mtj_angle_l	mtj_angle_r	mtp_angle_l	mtp_angle_r	lumbar_extension	lumbar_bending	lumbar_rotation	arm_flex_l	arm_add_l	arm_rot_l	arm_flex_r	arm_add_r	arm_rot_r	elbow_flex_l	elbow_flex_r	pro_sup_l	pro_sup_r	glut_med1_l/activation	glut_med2_l/activation	glut_med3_l/activation	glut_min1_l/activation	glut_min2_l/activation	glut_min3_l/activation	semimem_l/activation	semiten_l/activation	bifemlh_l/activation	bifemsh_l/activation	sar_l/activation	add_long_l/activation	add_brev_l/activation	add_mag1_l/activation	add_mag2_l/activation	add_mag3_l/activation	tfl_l/activation	pect_l/activation	grac_l/activation	glut_max1_l/activation	glut_max2_l/activation	glut_max3_l/activation	iliacus_l/activation	psoas_l/activation	quad_fem_l/activation	gem_l/activation	peri_l/activation	rect_fem_l/activation	vas_med_l/activation	vas_int_l/activation	vas_lat_l/activation	med_gas_l/activation	lat_gas_l/activation	soleus_l/activation	tib_post_l/activation	flex_dig_l/activation	flex_hal_l/activation	tib_ant_l/activation	per_brev_l/activation	per_long_l/activation	per_tert_l/activation	ext_dig_l/activation	ext_hal_l/activation	ercspn_l/activation	intobl_l/activation	extobl_l/activation	glut_med1_r/activation	glut_med2_r/activation	glut_med3_r/activation	glut_min1_r/activation	glut_min2_r/activation	glut_min3_r/activation	semimem_r/activation	semiten_r/activation	bifemlh_r/activation	bifemsh_r/activation	sar_r/activation	add_long_r/activation	add_brev_r/activation	add_mag1_r/activation	add_mag2_r/activation	add_mag3_r/activation	tfl_r/activation	pect_r/activation	grac_r/activation	glut_max1_r/activation	glut_max2_r/activation	glut_max3_r/activation	iliacus_r/activation	psoas_r/activation	quad_fem_r/activation	gem_r/activation	peri_r/activation	rect_fem_r/activation	vas_med_r/activation	vas_int_r/activation	vas_lat_r/activation	med_gas_r/activation	lat_gas_r/activation	soleus_r/activation	tib_post_r/activation	flex_dig_r/activation	flex_hal_r/activation	tib_ant_r/activation	per_brev_r/activation	per_long_r/activation	per_tert_r/activation	ext_dig_r/activation	ext_hal_r/activation	ercspn_r/activation	intobl_r/activation	extobl_r/activation	
          1.73032279	         -2.93017648	          2.06257211	         -5.69093136	          2.16290349	          0.91887702	          0.00253654	         29.21225731	          3.19230182	         -3.36928149	        -16.73445119	         -1.04388819	          6.54750925	        -10.25093401	         -8.85002356	          6.10212028	         -1.68497598	         -3.46391400	         10.06207172	         -1.12411875	          2.58473885	          3.21713476	         17.25067613	         -1.90149942	         -0.28341212	          2.17128435	         -5.58078394	        -13.45328843	          6.36901800	          4.49072519	        -13.45664446	         15.80505817	         16.83016035	         36.31644231	         86.51662706	         86.51662706	          0.05961290	          0.05961292	          0.05000007	          0.05961299	          0.05961297	          0.05961231	          0.21158951	          0.09060389	          0.14218138	          0.05961319	          0.05000012	          0.17141032	          0.32827052	          0.10324898	          0.24537608	          0.12305582	          0.05000013	          0.05029545	          0.15287155	          0.05000020	          0.05000021	          0.16625082	          0.05961300	          0.05303940	          0.35371431	          0.30212209	          0.13528233	          0.05000017	          0.10537816	          0.10450494	          0.09388549	          0.07210665	          0.07508179	          0.06247996	          0.05000006	          0.05961400	          0.05000045	          0.51261562	          0.23652649	          0.16123024	          0.22188539	          0.47605048	          0.24944972	          0.05779835	          0.11534742	          0.09563698	          0.24182233	          0.10103042	          0.07038438	          0.28365865	          0.19029971	          0.10561805	          0.05000136	          0.05000024	          0.05000012	          0.05278174	          0.11104709	          0.11235073	          0.10528237	          0.05000077	          0.05000109	          0.05000038	          0.32098239	          0.09848987	          0.05001675	          0.05000059	          0.05000038	          0.05000037	          0.39296747	          0.65080869	          0.05000007	          0.05000023	          0.05000059	          0.28721973	          0.05000012	          0.05000012	          0.05000012	          0.26239249	          0.36067480	          0.32163224	          0.27199798	          0.26322217	          0.34978194	          0.05000002	          0.05961301	          0.13241010	          0.05000017	          0.05000004	          0.05000016	          0.05000001	          0.05000007	          0.06922689	
          1.74185828	         -2.92701213	          2.15313186	         -5.95969229	          2.18048729	          0.91797938	          0.00234601	         28.58995621	          3.60060097	         -3.12645608	        -16.47125075	         -1.35221123	          6.35616692	        -10.79135149	        -11.01151264	          5.53166214	         -2.45207761	         -3.84577399	         11.08887524	         -1.25163717	          1.90563863	          3.09680863	         18.88577107	         -1.68214447	         -0.49351267	          2.24211776	         -6.53755641	        -13.45030966	          6.12329979	          4.15318693	        -13.46864759	         16.13036046	         16.49513919	         37.57045592	         86.51662706	         86.51662706	          0.05000001	          0.05000004	          0.12082821	          0.05000008	          0.05000008	          0.05000007	          0.17746965	          0.07599360	          0.11925389	          0.05000057	          0.05961104	          0.14376955	          0.35069919	          0.36626206	          0.25232336	          0.13407264	          0.05000029	          0.08469048	          0.17449233	          0.06379306	          0.11657289	          0.16312571	          0.05000016	          0.05000046	          0.59322519	          0.25340330	          0.11346738	          0.05961289	          0.08838596	          0.08765367	          0.07874652	          0.07099196	          0.07107388	          0.06387681	          0.05961277	          0.05000113	          0.05947535	          0.49789377	          0.26532061	          0.20813752	          0.18610531	          0.44186830	          0.20922466	          0.05000000	          0.09674703	          0.08021500	          0.20282721	          0.08473875	          0.05961308	          0.23791723	          0.15961290	          0.08858661	          0.05000167	          0.05000070	          0.05000179	          0.05000008	          0.09314024	          0.20560131	          0.08914848	          0.15350478	          0.05961481	          0.05961370	          0.26922236	          0.08260830	          0.05000056	          0.05957663	          0.05961288	          0.05961331	          0.32959936	          0.59061999	          0.05963839	          0.05961879	          0.05000108	          0.25808764	          0.13071924	          0.12189878	          0.05961729	          0.22008028	          0.30251404	          0.26976730	          0.22813691	          0.22077640	          0.29337792	          0.05000001	          0.05000018	          0.14655005	          0.05000007	          0.05000002	          0.05000010	          0.06942280	          0.07107399	          0.06583426	
          1.75339376	         -2.91897027	          2.25133239	         -6.19433412	          2.19836589	          0.91705813	          0.00217974	         27.83141180	          3.88337220	         -2.85568480	        -16.12854410	         -1.65967058	          6.15290529	        -11.39480064	        -13.29107858	          5.04989587	         -3.43065262	         -4.23821016	         12.04725473	         -1.48148333	          1.17687924	          3.10673472	         20.48878979	         -1.44121032	         -0.71807826	          2.30084027	         -7.51390285	        -13.45899195	          5.95203462	          3.73701578	        -13.47712663	         16.37714035	         16.19705680	         38.80501782	         86.51662706	         86.51662706	          0.25576828	          0.27713922	          0.30738177	          0.46298279	          0.29636315	          0.20906834	          0.14979098	          0.07473603	          0.10522192	          0.06321361	          0.05000059	          0.12058596	          0.29414707	          0.30720039	          0.21163507	          0.14740677	          0.05000028	          0.07103398	          0.14635468	          0.15414491	          0.14629429	          0.13682168	          0.05008391	          0.05000034	          0.49756444	          0.21254072	          0.22728168	          0.05000007	          0.07413334	          0.07351914	          0.06604829	          0.05954416	          0.05961288	          0.05415784	          0.05000009	          0.05000026	          0.05000037	          0.56673781	          0.34765226	          0.17457440	          0.37263350	          0.51245313	          0.18543684	          0.06644686	          0.11811950	          0.06727991	          0.30482587	          0.07107420	          0.05000026	          0.28159493	          0.13387456	          0.07430160	          0.05000147	          0.05000018	          0.05000012	          0.05000065	          0.07812115	          0.17244706	          0.07477314	          0.12875138	          0.05000190	          0.05000077	          0.31654104	          0.08478024	          0.05003319	          0.05000081	          0.05000076	          0.05000058	          0.27644973	          0.54492662	          0.05002143	          0.05000518	          0.05000194	          0.25125904	          0.10964009	          0.10224198	          0.05000371	          0.18459115	          0.25373202	          0.22626586	          0.19134862	          0.18517509	          0.24606920	          0.05104869	          0.10620387	          0.16165227	          0.05000020	          0.09124261	          0.05000029	          0.06783839	          0.05961292	          0.05521814	
          1.76492925	         -2.90828420	          2.33855070	         -6.38998839	          2.21630922	          0.91613908	          0.00198007	         27.02631268	          4.12884351	         -2.59246214	        -15.68390219	         -1.94805941	          5.96551761	        -11.92161076	        -15.70558138	          4.51683975	         -4.53509883	         -4.63169248	         12.94447114	         -1.40547075	          0.36955652	          3.14457419	         21.86324645	         -1.20339930	         -0.93501976	          2.34947578	         -8.45775649	        -13.46831748	          5.85773334	          3.28389483	        -13.49447244	         16.57393568	         15.90511148	         39.99463759	         86.51662706	         86.51662706	          0.36141181	          0.37287987	          0.40914563	          0.38832438	          0.24857319	          0.25009375	          0.12563648	          0.09381528	          0.09325733	          0.05302028	          0.05000050	          0.10114084	          0.24671430	          0.25766283	          0.17863167	          0.17486539	          0.05000021	          0.05957970	          0.12275449	          0.25240429	          0.20659207	          0.18102643	          0.05000004	          0.05000005	          0.41732952	          0.17826744	          0.19063166	          0.05000005	          0.12326147	          0.12940801	          0.10465971	          0.05000002	          0.05000005	          0.05000000	          0.05000001	          0.05000008	          0.05000008	          0.63597516	          0.30627259	          0.16146667	          0.61739374	          0.56456039	          0.32419418	          0.08221044	          0.09907210	          0.05643067	          0.25567114	          0.05961314	          0.05000045	          0.23618639	          0.11228662	          0.06232010	          0.05000125	          0.05000015	          0.05000019	          0.05000006	          0.06552379	          0.20252664	          0.18559505	          0.10799135	          0.05959845	          0.12920326	          0.26549749	          0.07110942	          0.05000070	          0.05000815	          0.05000347	          0.05001340	          0.23187073	          0.47601967	          0.05004942	          0.05000230	          0.05000019	          0.21074222	          0.10156402	          0.10149123	          0.10103047	          0.15482482	          0.21281636	          0.18977926	          0.16049263	          0.15531467	          0.20638926	          0.15335619	          0.11246518	          0.13558575	          0.24435845	          0.19338297	          0.09603278	          0.08105922	          0.05000003	          0.05000002	
